<?xml version="1.0" encoding="UTF-8" standalone="no"?>
<!-- Created with PhotoLine 24.40b19 (www.pl32.de) -->
<!DOCTYPE svg PUBLIC "-//W3C//DTD SVG 1.1//EN" "http://www.w3.org/Graphics/SVG/1.1/DTD/svg11.dtd">
<svg width="128" height="128" viewBox="0 0 128 128" version="1.1" xmlns="http://www.w3.org/2000/svg" xmlns:xlink="http://www.w3.org/1999/xlink">
  <g transform="matrix(0.391437 0 0 0.391437 -16.362349 0.000006)">
    <path id="abgerundetes Quadrat/Rechteck" transform="matrix(1.186895 0 0 1.186895 -38.369774 -42.433777)" fill="#005fff" fill-rule="evenodd" d="M95.1 35.75 L315.5 35.75 C330.71 35.75 343.05 48.1 343.05 63.3 L343.05 283.71 C343.05 298.91 330.71 311.26 315.5 311.26 L95.1 311.26 C79.9 311.26 67.55 298.91 67.55 283.71 L67.55 63.3 C67.55 48.1 79.9 35.75 95.1 35.75 Z"/>
    <path id="Vektor" transform="matrix(1.586136 0 0 1.586136 26.915661 -5.871439)" fill="#ffffff" fill-rule="evenodd" d="M125.45 75.38 C127.67 75.72 139.4 53.97 156.89 54.64 C172.74 55.24 173.63 66.13 175.62 67.35 L182.81 69.86 C187.81 71.37 187.63 72.42 183.18 73.3 C176.49 74.63 167.61 84.02 163.56 94.3 C160.22 102.8 158.69 124.29 145.27 135.99 C135.13 144.83 115.99 149.42 105.06 152.07 C90.44 155.6 63.34 165.95 61.78 166.4 C61.03 166.62 58.51 167.01 61.32 162.94 C64.12 158.87 97.23 120.25 97.23 120.25 C63.19 117.57 53.25 101.36 50.7 88.9 C56.24 88.71 77.43 89.68 74.81 89.01 C46.52 81.79 37.55 62.35 36.86 46.58 C70.34 58.25 121.71 74.81 125.45 75.38 Z"/>
  </g>
</svg>
